<?xml version="1.0" encoding="UTF-8" standalone="no"?>
<svg
   xmlns:dc="http://purl.org/dc/elements/1.1/"
   xmlns:cc="http://creativecommons.org/ns#"
   xmlns:rdf="http://www.w3.org/1999/02/22-rdf-syntax-ns#"
   xmlns:svg="http://www.w3.org/2000/svg"
   xmlns="http://www.w3.org/2000/svg"
   version="1.1"
   id="svg2"
   xml:space="preserve"
   width="338.64172"
   height="118.34133"
   viewBox="0 0 338.64173 118.34133"><metadata
     id="metadata8"><rdf:RDF><cc:Work
         rdf:about=""><dc:format>image/svg+xml</dc:format><dc:type
           rdf:resource="http://purl.org/dc/dcmitype/StillImage" /><dc:title></dc:title></cc:Work></rdf:RDF></metadata><defs
     id="defs6"><clipPath
       clipPathUnits="userSpaceOnUse"
       id="clipPath22"><path
         d="M 0,148.829 H 314.054 V 0 H 0 Z"
         id="path20" /></clipPath></defs><g
     id="g10"
     transform="matrix(1.3333333,0,0,-1.3333333,-40.048799,158.39)"><g
       id="g12"
       transform="translate(68.8706,118.7925)"><path
         d="M 0,0 38.833,-22.187 V -66.571 L 0,-88.756 -38.834,-66.571 v 44.384 z"
         style="fill:#192c66;fill-opacity:1;fill-rule:evenodd;stroke:none"
         id="path14" /></g><g
       id="g16"><g
         id="g18"
         clip-path="url(#clipPath22)"><g
           id="g24"
           transform="translate(68.8706,101.6104)"><path
             d="m 0,0 c 2.768,0 5.004,-2.242 5.004,-5.004 0,-2.768 -2.236,-5.01 -5.004,-5.01 -2.763,0 -5.005,2.242 -5.005,5.01 C -5.005,-2.242 -2.763,0 0,0"
             style="fill:#ffffff;fill-opacity:1;fill-rule:evenodd;stroke:none"
             id="path26" /></g><g
           id="g28"
           transform="translate(79.9663,101.6104)"><path
             d="m 0,0 c 2.762,0 5.004,-2.242 5.004,-5.004 0,-2.768 -2.242,-5.01 -5.004,-5.01 -2.768,0 -5.01,2.242 -5.01,5.01 C -5.01,-2.242 -2.768,0 0,0"
             style="fill:#ffffff;fill-opacity:1;fill-rule:evenodd;stroke:none"
             id="path30" /></g><g
           id="g32"
           transform="translate(57.7734,101.6104)"><path
             d="m 0,0 c 2.764,0 5.004,-2.242 5.004,-5.004 0,-2.768 -2.24,-5.01 -5.004,-5.01 -2.766,0 -5.004,2.242 -5.004,5.01 C -5.004,-2.242 -2.766,0 0,0"
             style="fill:#ffffff;fill-opacity:1;fill-rule:evenodd;stroke:none"
             id="path34" /></g><g
           id="g36"
           transform="translate(68.8706,90.5142)"><path
             d="m 0,0 c 2.768,0 5.004,-2.242 5.004,-5.004 0,-2.768 -2.236,-5.01 -5.004,-5.01 -2.763,0 -5.005,2.242 -5.005,5.01 C -5.005,-2.242 -2.763,0 0,0"
             style="fill:#ffffff;fill-opacity:1;fill-rule:evenodd;stroke:none"
             id="path38" /></g><g
           id="g40"
           transform="translate(79.9663,90.5142)"><path
             d="m 0,0 c 2.762,0 5.004,-2.242 5.004,-5.004 0,-2.768 -2.242,-5.01 -5.004,-5.01 -2.768,0 -5.01,2.242 -5.01,5.01 C -5.01,-2.242 -2.768,0 0,0"
             style="fill:#ffffff;fill-opacity:1;fill-rule:evenodd;stroke:none"
             id="path42" /></g><g
           id="g44"
           transform="translate(46.6772,90.5142)"><path
             d="m 0,0 c 2.764,0 5.004,-2.242 5.004,-5.004 0,-2.768 -2.24,-5.01 -5.004,-5.01 -2.766,0 -5.004,2.242 -5.004,5.01 C -5.004,-2.242 -2.766,0 0,0"
             style="fill:#ffffff;fill-opacity:1;fill-rule:evenodd;stroke:none"
             id="path46" /></g><g
           id="g48"
           transform="translate(91.0625,90.5142)"><path
             d="m 0,0 c 2.762,0 5.004,-2.242 5.004,-5.004 0,-2.768 -2.242,-5.01 -5.004,-5.01 -2.768,0 -5.01,2.242 -5.01,5.01 C -5.01,-2.242 -2.768,0 0,0"
             style="fill:#ffffff;fill-opacity:1;fill-rule:evenodd;stroke:none"
             id="path50" /></g><g
           id="g52"
           transform="translate(57.7734,90.5142)"><path
             d="m 0,0 c 2.764,0 5.004,-2.242 5.004,-5.004 0,-2.768 -2.24,-5.01 -5.004,-5.01 -2.766,0 -5.004,2.242 -5.004,5.01 C -5.004,-2.242 -2.766,0 0,0"
             style="fill:#ffffff;fill-opacity:1;fill-rule:evenodd;stroke:none"
             id="path54" /></g><g
           id="g56"
           transform="translate(68.8706,79.4243)"><path
             d="m 0,0 c 2.768,0 5.004,-2.242 5.004,-5.01 0,-2.762 -2.236,-5.004 -5.004,-5.004 -2.763,0 -5.005,2.242 -5.005,5.004 C -5.005,-2.242 -2.763,0 0,0"
             style="fill:#ffffff;fill-opacity:1;fill-rule:evenodd;stroke:none"
             id="path58" /></g><g
           id="g60"
           transform="translate(79.9663,79.4243)"><path
             d="m 0,0 c 2.762,0 5.004,-2.242 5.004,-5.01 0,-2.762 -2.242,-5.004 -5.004,-5.004 -2.768,0 -5.01,2.242 -5.01,5.004 C -5.01,-2.242 -2.768,0 0,0"
             style="fill:#ffffff;fill-opacity:1;fill-rule:evenodd;stroke:none"
             id="path62" /></g><g
           id="g64"
           transform="translate(46.6772,79.4243)"><path
             d="m 0,0 c 2.764,0 5.004,-2.242 5.004,-5.01 0,-2.762 -2.24,-5.004 -5.004,-5.004 -2.766,0 -5.004,2.242 -5.004,5.004 C -5.004,-2.242 -2.766,0 0,0"
             style="fill:#ffffff;fill-opacity:1;fill-rule:evenodd;stroke:none"
             id="path66" /></g><g
           id="g68"
           transform="translate(91.0625,79.4243)"><path
             d="m 0,0 c 2.762,0 5.004,-2.242 5.004,-5.01 0,-2.762 -2.242,-5.004 -5.004,-5.004 -2.768,0 -5.01,2.242 -5.01,5.004 C -5.01,-2.242 -2.768,0 0,0"
             style="fill:#ffffff;fill-opacity:1;fill-rule:evenodd;stroke:none"
             id="path70" /></g><g
           id="g72"
           transform="translate(57.7734,79.4243)"><path
             d="m 0,0 c 2.764,0 5.004,-2.242 5.004,-5.01 0,-2.762 -2.24,-5.004 -5.004,-5.004 -2.766,0 -5.004,2.242 -5.004,5.004 C -5.004,-2.242 -2.766,0 0,0"
             style="fill:#ffffff;fill-opacity:1;fill-rule:evenodd;stroke:none"
             id="path74" /></g><g
           id="g76"
           transform="translate(68.8706,68.3281)"><path
             d="m 0,0 c 2.768,0 5.004,-2.242 5.004,-5.004 0,-2.767 -2.236,-5.01 -5.004,-5.01 -2.763,0 -5.005,2.243 -5.005,5.01 C -5.005,-2.242 -2.763,0 0,0"
             style="fill:#ffffff;fill-opacity:1;fill-rule:evenodd;stroke:none"
             id="path78" /></g><g
           id="g80"
           transform="translate(79.9663,68.3281)"><path
             d="m 0,0 c 2.762,0 5.004,-2.242 5.004,-5.004 0,-2.767 -2.242,-5.01 -5.004,-5.01 -2.768,0 -5.01,2.243 -5.01,5.01 C -5.01,-2.242 -2.768,0 0,0"
             style="fill:#ffffff;fill-opacity:1;fill-rule:evenodd;stroke:none"
             id="path82" /></g><g
           id="g84"
           transform="translate(46.6772,68.3281)"><path
             d="m 0,0 c 2.764,0 5.004,-2.242 5.004,-5.004 0,-2.767 -2.24,-5.01 -5.004,-5.01 -2.766,0 -5.004,2.243 -5.004,5.01 C -5.004,-2.242 -2.766,0 0,0"
             style="fill:#ffffff;fill-opacity:1;fill-rule:evenodd;stroke:none"
             id="path86" /></g><g
           id="g88"
           transform="translate(91.0625,68.3281)"><path
             d="m 0,0 c 2.762,0 5.004,-2.242 5.004,-5.004 0,-2.767 -2.242,-5.01 -5.004,-5.01 -2.768,0 -5.01,2.243 -5.01,5.01 C -5.01,-2.242 -2.768,0 0,0"
             style="fill:#ffffff;fill-opacity:1;fill-rule:evenodd;stroke:none"
             id="path90" /></g><g
           id="g92"
           transform="translate(57.7734,68.3281)"><path
             d="m 0,0 c 2.764,0 5.004,-2.242 5.004,-5.004 0,-2.767 -2.24,-5.01 -5.004,-5.01 -2.766,0 -5.004,2.243 -5.004,5.01 C -5.004,-2.242 -2.766,0 0,0"
             style="fill:#ffffff;fill-opacity:1;fill-rule:evenodd;stroke:none"
             id="path94" /></g><g
           id="g96"
           transform="translate(68.8706,57.2383)"><path
             d="m 0,0 c 2.768,0 5.004,-2.242 5.004,-5.01 0,-2.762 -2.236,-5.005 -5.004,-5.005 -2.763,0 -5.005,2.243 -5.005,5.005 C -5.005,-2.242 -2.763,0 0,0"
             style="fill:#ffffff;fill-opacity:1;fill-rule:evenodd;stroke:none"
             id="path98" /></g><g
           id="g100"
           transform="translate(79.9663,57.2383)"><path
             d="m 0,0 c 2.762,0 5.004,-2.242 5.004,-5.01 0,-2.762 -2.242,-5.005 -5.004,-5.005 -2.768,0 -5.01,2.243 -5.01,5.005 C -5.01,-2.242 -2.768,0 0,0"
             style="fill:#ffffff;fill-opacity:1;fill-rule:evenodd;stroke:none"
             id="path102" /></g><g
           id="g104"
           transform="translate(57.7734,57.2383)"><path
             d="m 0,0 c 2.764,0 5.004,-2.242 5.004,-5.01 0,-2.762 -2.24,-5.005 -5.004,-5.005 -2.766,0 -5.004,2.243 -5.004,5.005 C -5.004,-2.242 -2.766,0 0,0"
             style="fill:#ffffff;fill-opacity:1;fill-rule:evenodd;stroke:none"
             id="path106" /></g><path
           d="m 127.74,69.462 h 3.915 V 52.29 h -3.915 z"
           style="fill:#4f4c4d;fill-opacity:1;fill-rule:nonzero;stroke:none"
           id="path108" /><g
           id="g110"
           transform="translate(147.4556,60.8164)"><path
             d="m 0,0 v 0.192 c 0,3.338 -1.777,5.619 -4.779,5.619 -2.978,0 -4.78,-2.186 -4.78,-5.643 v -0.192 c 0,-3.506 2.018,-5.668 4.828,-5.668 C -1.825,-5.692 0,-3.459 0,0 m -13.617,-0.048 v 0.192 c 0,5.115 3.746,8.741 8.838,8.741 5.164,0 8.839,-3.482 8.839,-8.645 V 0.048 c 0,-5.115 -3.507,-8.839 -8.863,-8.839 -5.38,0 -8.814,3.724 -8.814,8.743"
             style="fill:#4f4c4d;fill-opacity:1;fill-rule:nonzero;stroke:none"
             id="path112" /></g><g
           id="g114"
           transform="translate(152.7104,60.7686)"><path
             d="m 0,0 v 0.191 c 0,5.212 3.65,8.767 8.526,8.767 4.131,0 7.205,-2.018 7.614,-6.244 H 12.152 C 11.864,4.779 10.712,5.883 8.55,5.883 5.836,5.883 4.106,3.77 4.106,0.216 V 0.023 c 0,-3.554 1.634,-5.62 4.468,-5.62 2.138,0 3.626,1.081 3.939,3.291 h 3.818 C 15.899,-6.557 12.849,-8.743 8.622,-8.743 3.002,-8.743 0,-5.284 0,0"
             style="fill:#4f4c4d;fill-opacity:1;fill-rule:nonzero;stroke:none"
             id="path116" /></g><g
           id="g118"
           transform="translate(177.2983,54.9795)"><path
             d="m 0,0 c 1.922,0 2.786,0.865 2.786,2.426 v 0.096 c 0,1.585 -0.864,2.402 -2.977,2.402 H -2.665 V 0 Z m -0.336,7.422 c 1.873,0 2.618,0.673 2.618,2.209 v 0.096 c 0,1.441 -0.816,2.09 -2.641,2.09 H -2.665 V 7.422 Z m -6.124,7.061 h 6.749 c 3.746,0 5.691,-1.537 5.691,-4.468 V 9.919 C 5.98,8.118 5.116,6.798 3.194,6.245 5.429,5.789 6.629,4.516 6.629,2.21 V 2.114 c 0,-3.146 -2.066,-4.803 -6.028,-4.803 H -6.46 Z"
             style="fill:#4f4c4d;fill-opacity:1;fill-rule:nonzero;stroke:none"
             id="path120" /></g><g
           id="g122"
           transform="translate(197.9995,61.248)"><path
             d="M 0,0 C 1.897,0 2.906,0.913 2.906,2.618 V 2.715 C 2.906,4.54 1.85,5.26 0,5.26 H -1.97 V 0 Z m -5.836,8.214 h 5.932 c 4.179,0 6.556,-1.849 6.556,-5.476 V 2.643 c 0,-3.627 -2.521,-5.357 -6.436,-5.357 H -1.97 v -6.244 h -3.866 z"
             style="fill:#4f4c4d;fill-opacity:1;fill-rule:nonzero;stroke:none"
             id="path124" /></g><g
           id="g126"
           transform="translate(212.1099,61.5605)"><path
             d="M 0,0 C 1.945,0 2.931,0.816 2.931,2.473 V 2.57 C 2.931,4.323 1.874,4.923 0,4.923 H -2.186 V 0 Z m -6.052,7.902 h 6.149 c 4.058,0 6.629,-1.657 6.629,-5.212 V 2.593 C 6.726,0 5.212,-1.369 3.194,-1.97 l 4.54,-7.301 H 3.603 l -4.107,6.629 h -1.682 v -6.629 h -3.866 z"
             style="fill:#4f4c4d;fill-opacity:1;fill-rule:nonzero;stroke:none"
             id="path128" /></g><g
           id="g130"
           transform="translate(226.1636,58.8711)"><path
             d="M 0,0 H 4.539 L 2.281,7.42 Z M -0.024,10.591 H 5.043 L 10.615,-6.581 H 6.557 L 5.38,-2.763 h -6.221 l -1.177,-3.818 h -3.651 z"
             style="fill:#4f4c4d;fill-opacity:1;fill-rule:nonzero;stroke:none"
             id="path132" /></g><g
           id="g134"
           transform="translate(236.6831,60.7686)"><path
             d="m 0,0 v 0.191 c 0,5.164 3.675,8.767 8.742,8.767 3.819,0 7.23,-1.753 7.638,-6.004 H 12.513 C 12.177,4.97 10.855,5.883 8.79,5.883 5.812,5.883 4.059,3.65 4.059,0.144 v -0.193 c 0,-3.314 1.417,-5.691 4.779,-5.691 2.882,0 4.059,1.657 4.131,3.626 H 9.103 V 0.72 h 7.709 v -1.825 c 0,-4.587 -2.93,-7.638 -8.07,-7.638 C 3.122,-8.743 0,-5.092 0,0"
             style="fill:#4f4c4d;fill-opacity:1;fill-rule:nonzero;stroke:none"
             id="path136" /></g><g
           id="g138"
           transform="translate(255.3726,58.9912)"><path
             d="M 0,0 V 10.471 H 3.915 V 0.24 c 0,-2.858 0.841,-4.107 3.194,-4.107 2.306,0 3.315,1.104 3.315,4.251 v 10.087 h 3.915 V 0.144 c 0,-4.684 -2.618,-7.11 -7.254,-7.11 C 2.57,-6.966 0,-4.563 0,0"
             style="fill:#4f4c4d;fill-opacity:1;fill-rule:nonzero;stroke:none"
             id="path140" /></g><g
           id="g142"
           transform="translate(272.4419,69.4624)"><path
             d="M 0,0 H 11.191 V -3.026 H 3.866 V -7.037 H 9.727 V -9.872 H 3.866 v -4.274 h 7.71 v -3.026 H 0 Z"
             style="fill:#4f4c4d;fill-opacity:1;fill-rule:nonzero;stroke:none"
             id="path144" /></g><g
           id="g146"
           transform="translate(134.7095,101.1978)"><path
             d="M 0,0 H 3.771 L 1.345,-3.339 h -2.617 z m -6.917,-14.963 v 10.472 h 3.915 v -10.232 c 0,-2.858 0.841,-4.107 3.194,-4.107 2.306,0 3.315,1.104 3.315,4.251 v 10.088 h 3.915 v -10.328 c 0,-4.684 -2.618,-7.11 -7.254,-7.11 -4.515,0 -7.085,2.403 -7.085,6.966"
             style="fill:#4f4c4d;fill-opacity:1;fill-rule:nonzero;stroke:none"
             id="path148" /></g><g
           id="g150"
           transform="translate(157.5112,88.0601)"><path
             d="m 0,0 v 0.192 c 0,3.338 -1.777,5.62 -4.779,5.62 -2.978,0 -4.78,-2.186 -4.78,-5.644 v -0.192 c 0,-3.507 2.018,-5.668 4.828,-5.668 C -1.825,-5.692 0,-3.459 0,0 m -13.617,-0.048 v 0.192 c 0,5.116 3.746,8.742 8.838,8.742 5.164,0 8.839,-3.483 8.839,-8.646 V 0.048 c 0,-5.116 -3.507,-8.839 -8.863,-8.839 -5.38,0 -8.814,3.723 -8.814,8.743"
             style="fill:#4f4c4d;fill-opacity:1;fill-rule:nonzero;stroke:none"
             id="path152" /></g><g
           id="g154"
           transform="translate(162.6802,88.0122)"><path
             d="m 0,0 v 0.191 c 0,5.212 3.65,8.767 8.526,8.767 4.131,0 7.205,-2.018 7.614,-6.244 H 12.152 C 11.864,4.779 10.712,5.884 8.55,5.884 5.836,5.884 4.106,3.771 4.106,0.216 V 0.023 c 0,-3.554 1.634,-5.62 4.468,-5.62 2.138,0 3.626,1.081 3.939,3.291 h 3.819 C 15.899,-6.558 12.849,-8.743 8.622,-8.743 3.002,-8.743 0,-5.284 0,0"
             style="fill:#4f4c4d;fill-opacity:1;fill-rule:nonzero;stroke:none"
             id="path156" /></g><g
           id="g158"
           transform="translate(180.8198,96.7065)"><path
             d="m 0,0 h 3.891 v -7.014 h 6.892 V 0 h 3.892 v -17.173 h -3.892 v 7.085 H 3.891 v -7.085 H 0 Z"
             style="fill:#4f4c4d;fill-opacity:1;fill-rule:nonzero;stroke:none"
             id="path160" /></g><g
           id="g162"
           transform="translate(204.8052,82.2241)"><path
             d="m 0,0 c 1.922,0 2.786,0.864 2.786,2.425 v 0.096 c 0,1.585 -0.864,2.402 -2.977,2.402 H -2.665 V 0 Z m -0.336,7.421 c 1.873,0 2.618,0.673 2.618,2.21 v 0.096 c 0,1.441 -0.816,2.089 -2.641,2.089 H -2.665 V 7.421 Z m -6.124,7.061 h 6.749 c 3.746,0 5.691,-1.537 5.691,-4.467 V 9.919 C 5.98,8.117 5.116,6.797 3.194,6.244 5.429,5.788 6.629,4.515 6.629,2.209 V 2.113 C 6.629,-1.033 4.563,-2.69 0.601,-2.69 H -6.46 Z"
             style="fill:#4f4c4d;fill-opacity:1;fill-rule:nonzero;stroke:none"
             id="path164" /></g><g
           id="g166"
           transform="translate(220.5259,93.0933)"><path
             d="M 0,0 H 1.563 L 0.786,2.557 Z M -0.008,3.648 H 1.737 L 3.656,-2.266 H 2.258 l -0.405,1.317 h -2.142 l -0.405,-1.317 h -1.257 z"
             style="fill:#4f4c4d;fill-opacity:1;fill-rule:nonzero;stroke:none"
             id="path168" /></g><g
           id="g170"
           transform="translate(223.8892,96.7417)"><path
             d="M 0,0 H 1.414 L 2.82,-4.541 4.226,0 H 5.483 L 3.515,-5.914 H 1.977 Z"
             style="fill:#4f4c4d;fill-opacity:1;fill-rule:nonzero;stroke:none"
             id="path172" /></g><g
           id="g174"
           transform="translate(219.9312,87.0288)"><path
             d="M 0,0 H 0.86 L 1.431,-0.431 1.993,0 H 2.837 L 1.91,-1.149 H 0.894 Z m -1.505,-4.541 v 0.066 c 0,1.795 1.257,3.019 2.936,3.019 1.423,0 2.481,-0.694 2.622,-2.15 H 2.68 c -0.1,0.711 -0.496,1.091 -1.241,1.091 -0.934,0 -1.53,-0.727 -1.53,-1.951 v -0.066 c 0,-1.224 0.563,-1.936 1.538,-1.936 0.737,0 1.249,0.372 1.357,1.133 H 4.119 C 3.97,-6.798 2.92,-7.551 1.464,-7.551 c -1.936,0 -2.969,1.191 -2.969,3.01"
             style="fill:#4f4c4d;fill-opacity:1;fill-rule:nonzero;stroke:none"
             id="path176" /></g><g
           id="g178"
           transform="translate(226.9985,82.7612)"><path
             d="M 0,0 C 0.67,0 1.009,0.281 1.009,0.852 V 0.885 C 1.009,1.488 0.646,1.695 0,1.695 H -0.752 V 0 Z m -2.084,2.721 h 2.117 c 1.398,0 2.282,-0.571 2.282,-1.795 V 0.894 C 2.315,0 1.795,-0.472 1.101,-0.679 L 2.663,-3.192 H 1.241 l -1.415,2.282 h -0.578 v -2.282 h -1.332 z"
             style="fill:#4f4c4d;fill-opacity:1;fill-rule:nonzero;stroke:none"
             id="path180" /></g><path
           d="m 229.161,87.897 h -10.697 v 0.861 h 10.697 z"
           style="fill:#4f4c4d;fill-opacity:1;fill-rule:evenodd;stroke:none"
           id="path182" /></g></g></g></svg>
